<?xml version="1.0" encoding="UTF-8" standalone="no"?>
<!-- Created with Inkscape (http://www.inkscape.org/) -->

<svg
   version="1.1"
   id="svg2"
   width="756"
   height="756"
   viewBox="0 0 756 756"
   sodipodi:docname="spices-food-seeklogo.com.ai"
   xmlns:inkscape="http://www.inkscape.org/namespaces/inkscape"
   xmlns:sodipodi="http://sodipodi.sourceforge.net/DTD/sodipodi-0.dtd"
   xmlns="http://www.w3.org/2000/svg"
   xmlns:svg="http://www.w3.org/2000/svg">
  <defs
     id="defs6">
    <linearGradient
       x1="0"
       y1="0"
       x2="1"
       y2="0"
       gradientUnits="userSpaceOnUse"
       gradientTransform="matrix(1337.8505,-1539.0201,-1539.0201,-1337.8505,-485.35205,1080.7222)"
       spreadMethod="pad"
       id="linearGradient26">
      <stop
         style="stop-opacity:1;stop-color:#1b1b1b"
         offset="0"
         id="stop22" />
      <stop
         style="stop-opacity:1;stop-color:#969697"
         offset="1"
         id="stop24" />
    </linearGradient>
    <clipPath
       clipPathUnits="userSpaceOnUse"
       id="clipPath36">
      <path
         d="M 0,567 H 567 V 0 H 0 Z"
         id="path34" />
    </clipPath>
    <linearGradient
       x1="0"
       y1="0"
       x2="1"
       y2="0"
       gradientUnits="userSpaceOnUse"
       gradientTransform="matrix(214.57628,-1354.7806,-1354.7806,-214.57628,227.83252,904.44629)"
       spreadMethod="pad"
       id="linearGradient70">
      <stop
         style="stop-opacity:1;stop-color:#573a2a"
         offset="0"
         id="stop66" />
      <stop
         style="stop-opacity:1;stop-color:#f4be72"
         offset="1"
         id="stop68" />
    </linearGradient>
    <linearGradient
       x1="0"
       y1="0"
       x2="1"
       y2="0"
       gradientUnits="userSpaceOnUse"
       gradientTransform="matrix(-36.590958,-1047.8341,-1047.8341,36.590958,362.81152,929.06152)"
       spreadMethod="pad"
       id="linearGradient90">
      <stop
         style="stop-opacity:1;stop-color:#573a2a"
         offset="0"
         id="stop86" />
      <stop
         style="stop-opacity:1;stop-color:#f4be72"
         offset="1"
         id="stop88" />
    </linearGradient>
    <linearGradient
       x1="0"
       y1="0"
       x2="1"
       y2="0"
       gradientUnits="userSpaceOnUse"
       gradientTransform="matrix(216.30302,-1365.6829,-1365.6829,-216.30302,237.97803,711.96729)"
       spreadMethod="pad"
       id="linearGradient110">
      <stop
         style="stop-opacity:1;stop-color:#573a2a"
         offset="0"
         id="stop106" />
      <stop
         style="stop-opacity:1;stop-color:#f4be72"
         offset="1"
         id="stop108" />
    </linearGradient>
    <clipPath
       clipPathUnits="userSpaceOnUse"
       id="clipPath120">
      <path
         d="M 0,567 H 567 V 0 H 0 Z"
         id="path118" />
    </clipPath>
  </defs>
  <sodipodi:namedview
     id="namedview4"
     pagecolor="#ffffff"
     bordercolor="#000000"
     borderopacity="0.25"
     inkscape:showpageshadow="2"
     inkscape:pageopacity="0.0"
     inkscape:pagecheckerboard="0"
     inkscape:deskcolor="#d1d1d1" />
  <g
     id="g8"
     inkscape:groupmode="layer"
     inkscape:label="spices-food-seeklogo.com"
     transform="matrix(1.3333333,0,0,-1.3333333,0,756)">
    <g
       id="g10">
      <g
         id="g12">
        <g
           id="g18">
          <g
             id="g20">
            <path
               d="m 120.004,300.993 c 16.515,-6.648 64.48,-21.432 87.838,-37.342 v 0 c 20.075,-13.67 41.494,-32.034 57.529,-51.219 v 0 c 16.039,-19.174 23.933,-33.428 44.306,-40.197 v 0 c 24.741,-8.229 45.346,0.326 57.623,16.402 v 0 c 10e-4,0 -11.51,-0.245 -52.21,13.194 v 0 c -40.705,13.434 -50.838,21.077 -50.838,21.077 v 0 c -7.356,8.541 -65.159,73.583 -134.072,92.151 v 0 c -6.876,1.851 -12.054,2.623 -15.792,2.623 v 0 c -14.382,10e-4 -7.488,-11.413 5.616,-16.689"
               style="fill:url(#linearGradient26);stroke:none"
               id="path28" />
          </g>
        </g>
      </g>
    </g>
    <g
       id="g30">
      <g
         id="g32"
         clip-path="url(#clipPath36)">
        <g
           id="g38"
           transform="translate(426.5576,243.499)">
          <path
             d="m 0,0 c -18.33,-1.546 -34.449,-9.862 -46.483,-22.236 10.251,4.497 22.96,8.745 36.896,12.044 8.458,2.004 16.616,3.5 24.111,4.453 -10.969,-5.364 -25.651,-10.5 -41.994,-14.39 -6.718,-1.599 -13.206,-2.828 -19.343,-3.782 8.61,-2.606 17.792,-3.71 27.258,-2.946 18.984,1.633 35.701,10.423 47.873,23.604 C 19.403,-0.39 9.839,0.823 0,0"
             style="fill:#879c29;fill-opacity:1;fill-rule:evenodd;stroke:none"
             id="path40" />
        </g>
        <g
           id="g42"
           transform="translate(409.0781,280.8115)">
          <path
             d="m 0,0 c -8.108,-6.615 -11.754,-17.21 -11.421,-29.351 2.715,6.201 6.757,12.958 11.857,19.451 3.099,3.935 6.31,7.436 9.46,10.368 -2.64,-7.021 -7.181,-14.993 -13.163,-22.61 -2.45,-3.14 -4.976,-5.947 -7.472,-8.463 5.466,0.826 10.465,2.838 14.662,6.247 8.378,6.875 12.092,17.967 11.418,30.705 C 9.59,5.614 4.354,3.545 0,0"
             style="fill:#879c29;fill-opacity:1;fill-rule:evenodd;stroke:none"
             id="path44" />
        </g>
        <g
           id="g46"
           transform="translate(367.4346,217.8867)">
          <path
             d="M 0,0 C 1.789,1.935 1.665,4.956 -0.276,6.738 -2.213,8.523 -5.23,8.4 -7.017,6.466 -8.805,4.529 -8.675,1.506 -6.736,-0.275 -4.801,-2.062 -1.787,-1.938 0,0"
             style="fill:#99cc66;fill-opacity:1;fill-rule:evenodd;stroke:none"
             id="path48" />
        </g>
        <g
           id="g50"
           transform="translate(371.3633,280.2891)">
          <path
             d="M 0,0 C 0.426,6.962 6.417,12.252 13.373,11.815 20.332,11.395 25.713,5.4 25.193,-1.554 24.49,-10.898 13.864,-17.594 17.716,-25.508 17.716,-25.508 -0.949,-15.325 0,0"
             style="fill:#707d28;fill-opacity:1;fill-rule:evenodd;stroke:none"
             id="path52" />
        </g>
      </g>
    </g>
    <g
       id="g54">
      <g
         id="g56">
        <g
           id="g62">
          <g
             id="g64">
            <path
               d="m 319.75,338.938 c -5.106,-42.272 -13.477,-64.848 15.66,-124.653 v 0 c -5.842,13.573 -13.502,37.863 -12.443,70.159 v 0 c 1.685,51.361 12.285,82.998 -14.747,130.787 v 0 c 0,0 16.5,-35.174 11.53,-76.293"
               style="fill:url(#linearGradient70);stroke:none"
               id="path72" />
          </g>
        </g>
      </g>
    </g>
    <g
       id="g74">
      <g
         id="g76">
        <g
           id="g82">
          <g
             id="g84">
            <path
               d="m 341.509,285.881 c -6.373,-19.421 -12.43,-29.268 -4.322,-60.159 v 0 c -1.479,6.939 -2.808,19.095 0.715,34.202 v 0 c 5.618,24.027 13.579,37.925 5.338,62.963 v 0 c 0,0 4.464,-18.103 -1.731,-37.006"
               style="fill:url(#linearGradient90);stroke:none"
               id="path92" />
          </g>
        </g>
      </g>
    </g>
    <g
       id="g94">
      <g
         id="g96">
        <g
           id="g102">
          <g
             id="g104">
            <path
               d="m 301.899,317.989 c -3.311,-27.432 -8.745,-42.09 10.167,-80.904 v 0 c -3.786,8.812 -8.762,24.578 -8.082,45.538 v 0 c 1.1,33.341 7.98,53.868 -9.563,84.888 v 0 c 0,0 10.704,-22.822 7.478,-49.522"
               style="fill:url(#linearGradient110);stroke:none"
               id="path112" />
          </g>
        </g>
      </g>
    </g>
    <g
       id="g114">
      <g
         id="g116"
         clip-path="url(#clipPath120)">
        <g
           id="g122"
           transform="translate(354.7832,205.0732)">
          <path
             d="M 0,0 C 1.219,1.319 1.135,3.379 -0.188,4.593 -1.51,5.812 -3.566,5.726 -4.784,4.407 -6.003,3.087 -5.914,1.026 -4.593,-0.187 -3.273,-1.405 -1.219,-1.321 0,0"
             style="fill:#707d28;fill-opacity:1;fill-rule:evenodd;stroke:none"
             id="path124" />
        </g>
        <g
           id="g126"
           transform="translate(398.3613,123.4443)">
          <path
             d="m 0,0 c 0,1.969 -0.879,2.947 -2.649,2.947 -2.204,0 -4.878,-2.104 -8.045,-6.313 -3.17,-4.221 -4.755,-7.763 -4.755,-10.646 0,-1.671 0.792,-2.501 2.389,-2.501 2.612,0 5.471,2.154 8.567,6.462 -0.706,0.78 -1.053,1.572 -1.053,2.402 0,1.175 0.472,2.403 1.411,3.665 0.941,1.261 1.857,1.881 2.761,1.881 0.384,0 0.644,-0.236 0.793,-0.719 C -0.197,-1.98 0,-1.039 0,0 m 5.831,-4.889 c 0,-0.383 -0.718,-1.287 -2.142,-2.712 -2.129,-2.128 -4.085,-3.193 -5.868,-3.193 -0.756,0 -1.423,0.149 -1.993,0.434 -3.191,-4.493 -6.189,-6.747 -8.986,-6.747 -1.462,0 -2.7,0.594 -3.728,1.794 -1.027,1.19 -1.534,2.625 -1.534,4.297 0,3.713 2.438,7.303 7.328,10.757 3.442,2.439 6.264,3.653 8.493,3.653 2.08,0 3.12,-1.115 3.12,-3.331 0,-2.786 -1.462,-6.141 -4.384,-10.051 0.484,-0.285 1.027,-0.435 1.623,-0.435 1.09,0 2.365,0.507 3.8,1.524 1.448,1.013 2.624,2.227 3.542,3.653 0.271,0.332 0.456,0.506 0.581,0.506 0.098,0 0.148,-0.05 0.148,-0.149 m -42.3,-15.796 c -0.285,-0.482 -0.434,-0.718 -0.434,-0.718 -3.8,-7.044 -6.956,-11.921 -9.469,-14.645 -2.514,-2.724 -5.114,-4.085 -7.775,-4.085 -0.865,0 -1.585,0.261 -2.141,0.768 -0.558,0.508 -0.83,1.126 -0.83,1.883 0,4.357 5.521,9.269 16.551,14.729 2.265,1.115 3.64,1.809 4.098,2.068 m 11.5,21.702 c 0,-1.982 -2.142,-5.696 -6.449,-11.142 -3.417,-4.31 -5.831,-6.463 -7.253,-6.463 -1.4,0 -2.106,0.817 -2.106,2.439 0,2.662 1.796,6.165 5.385,10.511 3.59,4.344 6.475,6.51 8.653,6.51 1.176,0 1.77,-0.618 1.77,-1.855 m 9.259,-5.981 c 0,0.124 -0.037,0.199 -0.111,0.224 -0.123,0 -0.359,-0.247 -0.731,-0.73 -2.388,-3.134 -4.542,-5.534 -6.435,-7.206 -1.909,-1.671 -4.446,-3.391 -7.614,-5.175 l 8.988,15.512 c 1.954,3.405 3.02,5.211 3.193,5.436 -1.214,-0.175 -2.129,-0.259 -2.75,-0.259 -0.481,0 -1.05,0.084 -1.707,0.259 l -2.03,-3.653 c 0.212,0.607 0.322,1.127 0.322,1.559 0,1.598 -0.718,2.391 -2.165,2.391 -2.081,0 -4.94,-1.14 -8.593,-3.406 -5.459,-3.403 -8.182,-7.191 -8.182,-11.376 0,-1.585 0.446,-2.946 1.324,-4.049 0.88,-1.112 1.944,-1.67 3.206,-1.67 1.152,0 2.292,0.507 3.381,1.536 1.1,1.027 2.995,3.316 5.67,6.869 l -6.166,-11.364 c -0.693,-0.383 -2.253,-1.138 -4.667,-2.241 -11.192,-5.1 -16.786,-10.125 -16.786,-15.078 0,-0.928 0.334,-1.696 1.015,-2.327 0.681,-0.631 1.536,-0.94 2.574,-0.94 2.846,0 6.228,1.584 10.152,4.754 4.085,3.279 7.762,7.96 11.054,14.026 l 1.807,3.291 c 4.643,2.538 8.418,5.422 11.34,8.653 2.612,2.922 3.911,4.582 3.911,4.964 M -46.422,0 c 0,1.969 -0.878,2.947 -2.65,2.947 -2.202,0 -4.875,-2.104 -8.045,-6.313 -3.171,-4.221 -4.754,-7.763 -4.754,-10.646 0,-1.671 0.793,-2.501 2.389,-2.501 2.613,0 5.472,2.154 8.566,6.462 -0.705,0.78 -1.053,1.572 -1.053,2.402 0,1.175 0.472,2.403 1.412,3.665 0.94,1.261 1.858,1.881 2.76,1.881 0.384,0 0.644,-0.236 0.793,-0.719 0.384,0.842 0.582,1.783 0.582,2.822 m 5.831,-4.889 c 0,0.099 -0.05,0.149 -0.149,0.149 -0.123,0 -0.31,-0.174 -0.581,-0.506 -0.917,-1.426 -2.092,-2.64 -3.54,-3.653 -1.437,-1.017 -2.712,-1.524 -3.801,-1.524 -0.595,0 -1.139,0.15 -1.622,0.435 2.922,3.91 4.382,7.265 4.382,10.051 0,2.216 -1.039,3.331 -3.12,3.331 -2.227,0 -5.05,-1.214 -8.491,-3.653 -4.891,-3.454 -7.331,-7.044 -7.331,-10.757 0,-1.672 0.509,-3.107 1.536,-4.297 1.028,-1.2 2.264,-1.794 3.726,-1.794 2.799,0 5.795,2.254 8.988,6.747 0.571,-0.285 1.238,-0.434 1.992,-0.434 1.785,0 3.741,1.065 5.87,3.193 1.422,1.425 2.141,2.329 2.141,2.712 M -54.902,20.774 C -65.053,3.865 -70.982,-6.064 -72.653,-9.049 c -1.685,-2.97 -2.528,-4.939 -2.528,-5.904 0,-1.09 0.459,-1.635 1.389,-1.635 2.042,0 5.78,3.851 11.215,11.551 0.123,0.247 0.26,0.371 0.432,0.371 0.099,-0.024 0.149,-0.099 0.149,-0.223 0,-0.148 -0.123,-0.335 -0.372,-0.581 l -1.56,-2.142 c -4.579,-6.326 -7.958,-9.495 -10.138,-9.495 -1.039,0 -1.893,0.397 -2.562,1.175 -0.667,0.792 -1.002,1.783 -1.002,2.996 0,1.325 0.31,2.614 0.928,3.862 0.606,1.238 2.713,4.829 6.289,10.782 4.369,7.269 8.059,13.581 11.055,18.917 0.729,-0.197 1.362,-0.284 1.918,-0.284 0.917,0 1.77,0.137 2.538,0.433 M -97.165,0.955 c 0,-1.339 -1.263,-3.813 -3.775,-7.452 -4.718,-6.724 -8.048,-10.091 -9.979,-10.091 -1.324,0 -1.993,0.817 -1.993,2.439 0,2.662 1.782,6.165 5.349,10.511 3.565,4.344 6.449,6.51 8.615,6.51 1.189,0 1.783,-0.643 1.783,-1.917 m 17.454,19.446 c -9.061,-14.409 -14.768,-23.618 -17.132,-27.63 -2.389,-4.084 -3.591,-6.659 -3.591,-7.724 0,-1.09 0.496,-1.635 1.486,-1.635 2.204,0 5.942,3.851 11.228,11.551 0.15,0.247 0.273,0.371 0.396,0.371 0.148,0 0.223,-0.074 0.223,-0.223 -0.026,-0.075 -0.148,-0.272 -0.37,-0.581 l -1.561,-2.142 c -4.58,-6.326 -7.959,-9.495 -10.151,-9.495 -1.114,0 -2.017,0.419 -2.724,1.251 -0.704,0.84 -1.051,1.906 -1.051,3.205 0,1.313 0.433,2.823 1.312,4.545 -4.223,-6.004 -7.366,-9.001 -9.421,-9.001 -1.276,0 -2.353,0.544 -3.218,1.645 -0.867,1.103 -1.301,2.489 -1.301,4.149 0,3.986 2.477,7.6 7.428,10.832 3.936,2.585 7.02,3.875 9.272,3.875 1.498,0 2.241,-0.731 2.241,-2.179 0,-0.67 -0.211,-1.437 -0.619,-2.279 l 12.95,21.689 c 0.79,-0.247 1.583,-0.371 2.351,-0.371 0.197,0 0.953,0.049 2.252,0.147 M -118.556,0 c 0,1.969 -0.879,2.947 -2.65,2.947 -2.202,0 -4.877,-2.104 -8.047,-6.313 -3.168,-4.221 -4.753,-7.763 -4.753,-10.646 0,-1.671 0.793,-2.501 2.39,-2.501 2.611,0 5.47,2.154 8.567,6.462 -0.706,0.78 -1.054,1.572 -1.054,2.402 0,1.175 0.47,2.403 1.413,3.665 0.94,1.261 1.855,1.881 2.76,1.881 0.382,0 0.643,-0.236 0.791,-0.719 0.384,0.842 0.583,1.783 0.583,2.822 m 5.829,-4.889 c 0,0.099 -0.049,0.149 -0.149,0.149 -0.122,0 -0.309,-0.174 -0.581,-0.506 -0.915,-1.426 -2.092,-2.64 -3.539,-3.653 -1.438,-1.017 -2.712,-1.524 -3.801,-1.524 -0.595,0 -1.139,0.15 -1.622,0.435 2.921,3.91 4.382,7.265 4.382,10.051 0,2.216 -1.038,3.331 -3.119,3.331 -2.229,0 -5.051,-1.214 -8.493,-3.653 -4.889,-3.454 -7.328,-7.044 -7.328,-10.757 0,-1.672 0.506,-3.107 1.536,-4.297 1.027,-1.2 2.264,-1.794 3.726,-1.794 2.798,0 5.793,2.254 8.987,6.747 0.569,-0.285 1.237,-0.434 1.993,-0.434 1.782,0 3.739,1.065 5.867,3.193 1.424,1.425 2.141,2.329 2.141,2.712 M -140.096,0 c 0,1.969 -0.878,2.947 -2.651,2.947 -2.201,0 -4.877,-2.104 -8.044,-6.313 -3.17,-4.221 -4.755,-7.763 -4.755,-10.646 0,-1.671 0.793,-2.501 2.389,-2.501 2.613,0 5.473,2.154 8.568,6.462 -0.706,0.78 -1.053,1.572 -1.053,2.402 0,1.175 0.47,2.403 1.412,3.665 0.939,1.261 1.855,1.881 2.76,1.881 0.384,0 0.643,-0.236 0.793,-0.719 0.384,0.842 0.581,1.783 0.581,2.822 m 5.83,-4.889 c 0,0.099 -0.048,0.149 -0.148,0.149 -0.124,0 -0.31,-0.174 -0.584,-0.506 -0.914,-1.426 -2.089,-2.64 -3.539,-3.653 -1.435,-1.017 -2.711,-1.524 -3.799,-1.524 -0.596,0 -1.139,0.15 -1.623,0.435 2.923,3.91 4.383,7.265 4.383,10.051 0,2.216 -1.042,3.331 -3.12,3.331 -2.228,0 -5.05,-1.214 -8.492,-3.653 -4.891,-3.454 -7.329,-7.044 -7.329,-10.757 0,-1.672 0.508,-3.107 1.536,-4.297 1.027,-1.2 2.264,-1.794 3.725,-1.794 2.799,0 5.794,2.254 8.988,6.747 0.568,-0.285 1.239,-0.434 1.993,-0.434 1.782,0 3.738,1.065 5.869,3.193 1.423,1.425 2.14,2.329 2.14,2.712 m -36.816,27.656 c 0,1.621 -0.396,3.242 -1.201,4.889 -5.558,-0.692 -10.782,-3.353 -15.647,-7.947 -4.864,-4.606 -7.292,-9.173 -7.292,-13.717 0,-1.695 0.545,-3.132 1.622,-4.319 1.078,-1.177 2.414,-1.771 4.012,-1.771 4.208,0 8.343,2.513 12.402,7.551 4.074,5.039 6.104,10.139 6.104,15.314 m 18.199,-16.404 c 0,1.029 -0.596,1.548 -1.784,1.548 -1.559,0 -2.908,-1.238 -4.023,-3.726 l -0.284,-0.644 h 0.903 c 1.498,0 2.735,0.262 3.713,0.793 0.979,0.533 1.475,1.2 1.475,2.029 m 32.829,19.596 c 0,0.743 -0.793,1.4 -2.377,1.946 -1.586,0.544 -3.491,0.816 -5.719,0.816 -5.275,0 -10.114,-0.915 -14.509,-2.762 l 4.853,-1.087 c 4.073,-0.953 7.81,-1.425 11.216,-1.425 1.746,0 3.267,0.26 4.58,0.768 1.299,0.508 1.956,1.089 1.956,1.744 m 0.668,0.064 c 0,-1.19 -1.187,-2.204 -3.553,-3.034 -2.365,-0.83 -5.224,-1.25 -8.555,-1.25 -4.356,0 -9.68,0.669 -15.992,2.018 -3.071,-1.461 -5.893,-3.664 -8.456,-6.636 -2.575,-2.959 -5.372,-7.218 -8.392,-12.787 1.498,-0.234 2.747,-0.432 3.737,-0.582 1.349,3.12 3.294,4.678 5.806,4.678 1.722,0 2.576,-0.656 2.576,-1.992 0,-1.065 -0.57,-1.93 -1.722,-2.586 -1.15,-0.67 -2.661,-1.003 -4.518,-1.003 h -0.731 c -0.074,-0.101 -0.371,-0.732 -0.903,-1.919 -0.607,-1.4 -1.474,-2.588 -2.613,-3.567 -1.137,-0.989 -2.203,-1.472 -3.194,-1.472 -0.333,0 -0.506,0.074 -0.506,0.223 0,0.111 0.123,0.211 0.358,0.285 1.67,0.507 3.368,2.748 5.09,6.71 -0.708,0.073 -1.722,0.209 -3.046,0.432 l -0.694,0.149 c -0.336,-0.606 -0.842,-1.499 -1.486,-2.687 -2.081,-3.726 -3.775,-6.387 -5.064,-7.972 -1.299,-1.597 -3.044,-3.17 -5.248,-4.717 -5.842,-4.11 -11.896,-6.165 -18.137,-6.165 -3.675,0 -6.684,0.769 -9.035,2.304 -2.34,1.535 -3.516,3.514 -3.516,5.93 0,1.212 0.36,2.254 1.066,3.106 0.716,0.855 1.571,1.287 2.561,1.287 1.596,0 2.389,-0.804 2.389,-2.425 0,-0.756 -0.247,-1.4 -0.731,-1.944 -0.481,-0.546 -1.077,-0.804 -1.756,-0.804 -1.163,0 -1.747,0.558 -1.747,1.695 0.075,0.583 0,0.866 -0.209,0.866 -0.457,0 -0.681,-0.632 -0.681,-1.918 0,-2.03 1.052,-3.763 3.169,-5.199 2.104,-1.436 4.655,-2.154 7.651,-2.154 4.704,0 8.925,1.411 12.689,4.221 3.761,2.81 7.895,7.675 12.391,14.583 0.384,0.557 0.952,1.412 1.697,2.574 h -0.683 c -2.71,0 -4.58,-1.039 -5.62,-3.119 -0.124,-0.335 -0.259,-0.508 -0.409,-0.508 -0.186,0 -0.284,0.099 -0.284,0.286 0,0.965 0.681,1.88 2.042,2.735 1.376,0.856 2.811,1.287 4.333,1.287 h 1.051 c 6.34,9.582 12.975,15.92 19.907,19.017 -1.855,0.406 -3.8,0.878 -5.805,1.409 -6.475,1.685 -11.5,2.527 -15.077,2.527 -0.731,0 -1.412,-0.026 -2.07,-0.062 1.042,-2.006 1.561,-4.273 1.561,-6.784 0,-5.274 -2.055,-10.238 -6.177,-14.905 -4.123,-4.668 -8.529,-6.995 -13.222,-6.995 -1.98,0 -3.588,0.619 -4.827,1.87 -1.226,1.238 -1.845,2.873 -1.845,4.877 0,4.568 2.378,9.186 7.131,13.865 4.74,4.678 10.051,7.636 15.895,8.864 -1.832,2.735 -4.655,4.095 -8.443,4.095 -6.214,0 -11.848,-3.019 -16.872,-9.06 -0.409,-0.407 -0.644,-0.618 -0.694,-0.618 -0.136,0 -0.236,0.087 -0.285,0.261 0,0.431 1.014,1.596 3.046,3.476 4.69,4.358 9.545,6.537 14.545,6.537 4.445,0 7.676,-1.511 9.681,-4.543 2.563,0.656 5.547,0.978 8.949,0.978 2.154,0 4.136,-0.174 5.954,-0.508 1.809,-0.334 6.178,-1.324 13.087,-2.958 5.384,2.066 10.447,3.095 15.153,3.095 2.784,0 5.024,-0.309 6.733,-0.929 1.696,-0.606 2.55,-1.423 2.55,-2.438"
             style="fill:#5f473b;fill-opacity:1;fill-rule:evenodd;stroke:none"
             id="path128" />
        </g>
      </g>
    </g>
  </g>
</svg>
